<svg xmlns="http://www.w3.org/2000/svg" data-name="Lager 1" viewBox="0 0 48 48"><path d="M32 43.5H16A7.5 7.5 0 0 1 8.5 36V14A7.5 7.5 0 0 1 16 6.5h3.76a4.5 4.5 0 0 1 8.48 0H32a7.5 7.5 0 0 1 7.5 7.5v22a7.5 7.5 0 0 1-7.5 7.5m-16-34a4.51 4.51 0 0 0-4.5 4.5v22a4.51 4.51 0 0 0 4.5 4.5h16a4.51 4.51 0 0 0 4.5-4.5V14A4.51 4.51 0 0 0 32 9.5h-6.5V8a1.5 1.5 0 0 0-3 0v1.5z"/><path d="M29.51 17.5h-11a4 4 0 0 1-4-4V8h3v5.51a1 1 0 0 0 1 1h11a1 1 0 0 0 1-1V8h3v5.51a4 4 0 0 1-4 3.99M22 31.36a2 2 0 0 1-1.42-.58l-3.14-3.18a1.5 1.5 0 1 1 2.12-2.12L22 28l6-6a1.49 1.49 0 0 1 2.12 0 1.51 1.51 0 0 1 0 2.12l-6.72 6.72a2 2 0 0 1-1.4.52"/></svg>