<svg xmlns="http://www.w3.org/2000/svg" data-name="Lager 1" viewBox="0 0 48 48"><path d="M20 38.5c-5.71 0-11.5-1.89-11.5-5.5V12c0-3.61 5.79-5.5 11.5-5.5S31.5 8.39 31.5 12v9h-3v-9c0-.64-2.92-2.5-8.5-2.5s-8.5 1.86-8.5 2.5v21c0 .64 2.92 2.5 8.5 2.5.63 0 1.27 0 1.88-.08l.24 3c-.69.05-1.4.08-2.12.08"/><path d="M20 17.5c-5.71 0-11.5-1.89-11.5-5.5h3c0 .64 2.92 2.5 8.5 2.5s8.5-1.86 8.5-2.5h3c0 3.61-5.79 5.5-11.5 5.5m0 14c-5.71 0-11.5-1.89-11.5-5.5h3c0 .64 2.92 2.5 8.5 2.5z"/><path d="M30 42.5A11.5 11.5 0 1 1 41.5 31 11.51 11.51 0 0 1 30 42.5m0-20a8.5 8.5 0 1 0 8.5 8.5 8.51 8.51 0 0 0-8.5-8.5"/><path d="M20 24.5c-5.71 0-11.5-1.89-11.5-5.5h3c0 .64 2.92 2.5 8.5 2.5a21.6 21.6 0 0 0 4.36-.43L25 24a24.7 24.7 0 0 1-5 .5"/></svg>