<svg xmlns="http://www.w3.org/2000/svg" viewBox="0 0 48 48"><path d="M42.678 18.269a4.46 4.46 0 0 0-3.202-1.748A5.505 5.505 0 0 0 34 11.5h-9.52a3.48 3.48 0 0 1-2.733-1.313L20.45 8.564A5.47 5.47 0 0 0 16.155 6.5H10A5.506 5.506 0 0 0 4.5 12v25h.005a4.46 4.46 0 0 0 .92 2.731A4.47 4.47 0 0 0 9.002 41.5H34.74a4.51 4.51 0 0 0 4.341-3.316l4.364-16a4.47 4.47 0 0 0-.766-3.916ZM10 9.5h6.155c.764 0 1.475.342 1.952.938l1.298 1.623a6.47 6.47 0 0 0 5.076 2.44H34c1.207 0 2.217.86 2.45 2H14.128a5.51 5.51 0 0 0-5.306 4.052L7.5 25.403V12c0-1.378 1.122-2.5 2.5-2.5m30.55 11.895-4.364 16a1.5 1.5 0 0 1-1.447 1.105H9.002c-.472 0-.906-.215-1.192-.59s-.38-.85-.255-1.305l4.162-15.263A2.506 2.506 0 0 1 14.13 19.5h24.974c.47 0 .905.215 1.191.59s.38.85.255 1.305"/></svg>